<?xml version="1.0" standalone="no"?>
<!DOCTYPE svg PUBLIC "-//W3C//DTD SVG 20010904//EN"
 "http://www.w3.org/TR/2001/REC-SVG-20010904/DTD/svg10.dtd">
<svg version="1.0" xmlns="http://www.w3.org/2000/svg"
 width="1024.000000pt" height="1024.000000pt" viewBox="0 0 1024.000000 1024.000000"
 preserveAspectRatio="xMidYMid meet">

<g transform="translate(0.000000,1024.000000) scale(0.100000,-0.100000)"
fill="#000000" stroke="none">
<path d="M4749 9040 c-438 -43 -818 -218 -1153 -530 -37 -35 -65 -69 -62 -76
3 -7 0 -11 -7 -9 -15 5 -114 -118 -190 -236 -112 -172 -200 -382 -247 -585
l-11 -51 -74 -7 c-179 -16 -317 -56 -490 -142 -223 -110 -396 -271 -539 -498
-202 -322 -249 -746 -124 -1120 156 -468 564 -807 1061 -880 92 -14 336 -16
1964 -16 1217 0 1888 4 1943 10 210 26 427 96 611 199 112 61 232 148 224 161
-3 5 0 12 6 16 8 4 9 3 5 -4 -16 -26 10 -9 80 54 41 37 74 71 74 77 0 6 -12 0
-27 -14 l-28 -24 25 30 c14 17 28 35 33 40 4 6 5 1 2 -10 -4 -11 18 6 48 39
51 54 54 61 50 97 -5 35 -3 39 16 39 13 0 19 -4 16 -10 -4 -6 -10 -8 -14 -5
-5 2 -8 -7 -8 -22 l0 -27 23 29 c82 103 187 349 225 525 31 142 33 425 5 575
-35 188 -110 382 -208 533 -40 61 -66 82 -33 25 12 -19 12 -22 2 -10 -11 14
-16 15 -20 5 -3 -7 -4 3 -2 24 4 34 -2 42 -96 142 -56 58 -106 106 -111 106
-6 0 -3 -9 7 -20 16 -18 16 -20 1 -26 -9 -4 -20 -4 -23 0 -4 3 2 6 12 6 16 0
16 3 -6 27 -13 14 -17 23 -9 18 8 -4 5 3 -8 16 -18 19 -24 21 -31 10 -6 -9
-11 -10 -15 -2 -4 6 -12 8 -18 5 -7 -5 -8 -2 -3 6 6 9 4 12 -7 8 -9 -4 -15 0
-15 8 0 12 5 11 25 -2 45 -29 34 -6 -13 26 -123 85 -254 145 -415 192 -90 26
-127 31 -261 35 -160 6 -249 -1 -249 -18 0 -5 12 -7 28 -3 21 4 24 3 12 -5
-18 -13 -77 -14 -84 -2 -4 5 3 7 13 4 15 -4 19 0 16 14 -2 10 -4 21 -4 26 -1
4 -6 7 -12 7 -8 0 -8 -4 0 -13 8 -10 7 -14 -3 -14 -10 0 -14 16 -15 56 -1 63
-9 94 -21 86 -5 -3 -12 0 -16 6 -4 8 -3 9 4 5 7 -4 12 -3 12 3 0 23 -15 43
-37 52 -21 8 -24 14 -20 36 6 31 -1 55 -14 47 -5 -3 -6 2 -3 11 5 12 12 7 29
-23 19 -34 86 -192 109 -256 3 -10 9 -17 12 -14 14 15 -109 291 -174 392 -244
376 -623 656 -1059 780 -203 59 -506 87 -714 66z m29 -17 c-10 -2 -26 -2 -35
0 -10 3 -2 5 17 5 19 0 27 -2 18 -5z m-81 -9 c-3 -3 -12 -4 -19 -1 -8 3 -5 6
6 6 11 1 17 -2 13 -5z m583 -13 c32 -6 37 -9 17 -10 -16 -1 -26 -5 -22 -11 3
-5 12 -7 19 -4 8 3 16 1 19 -3 3 -5 -10 -9 -30 -10 -19 0 -31 2 -25 6 16 10 1
25 -28 29 -14 2 -32 8 -40 13 -15 9 -6 8 90 -10z m-643 -12 c2 -16 -1 -18 -12
-9 -8 6 -18 9 -24 6 -5 -3 -17 -3 -28 1 -14 6 -11 9 17 14 19 4 37 7 40 8 3 0
6 -8 7 -20z m-83 -22 c-8 -5 -32 -6 -52 -3 -20 3 -41 6 -47 7 -5 0 13 6 40 13
34 8 54 8 61 1 9 -7 8 -12 -2 -18z m676 12 c0 -15 -18 -19 -23 -6 -3 8 1 14 9
14 8 0 14 -4 14 -8z m172 0 c29 -6 57 -15 62 -19 5 -5 -7 -5 -25 -1 -19 4 -52
6 -74 5 -22 -1 -31 0 -20 3 l20 6 -20 8 c-29 11 -3 11 57 -2z m-965 -15 c-3
-3 -12 -4 -19 -1 -8 3 -5 6 6 6 11 1 17 -2 13 -5z m-99 -29 c-18 -10 -26 -21
-23 -35 4 -22 -19 -28 -31 -9 -5 8 -9 8 -14 -1 -4 -6 -23 -10 -46 -8 l-39 3
45 15 c25 7 52 12 60 11 8 -2 12 1 7 5 -4 4 5 13 20 20 39 17 54 16 21 -1z
m82 1 c0 -2 -7 -7 -16 -10 -8 -3 -12 -2 -9 4 6 10 25 14 25 6z m1125 -4 c18
-13 13 -48 -7 -48 -20 0 -26 36 -5 37 6 0 3 4 -8 9 -13 6 -15 9 -5 9 8 0 20
-3 25 -7z m115 -40 c22 -8 19 -9 -24 -10 -27 -1 -46 1 -42 5 3 3 1 12 -5 19
-11 14 12 9 71 -14z m136 -71 c-2 -3 7 -7 21 -8 14 0 28 -5 32 -11 3 -5 13
-12 21 -15 12 -4 12 -6 -2 -6 -9 -1 -20 4 -23 9 -3 6 -19 10 -36 10 -16 0 -29
5 -29 13 0 8 -4 7 -11 -3 -8 -13 -9 -13 -7 2 2 9 -6 24 -17 33 -17 13 -14 13
17 -1 20 -10 36 -20 34 -23z m-1700 14 c-11 -8 -24 -15 -29 -15 -4 0 -5 -4 -2
-10 4 -6 -1 -7 -11 -3 -13 5 -10 10 17 24 41 22 51 23 25 4z m724 -56 c0 -5
-4 -9 -8 -9 -5 0 -9 7 -9 15 0 8 4 12 9 9 4 -3 8 -9 8 -15z m-852 -13 c-10 -7
-15 -15 -13 -18 3 -3 -1 -11 -10 -18 -12 -10 -15 -10 -15 0 0 9 -8 7 -27 -4
l-28 -17 23 20 c13 11 30 17 39 14 10 -4 14 -2 9 5 -3 6 2 15 11 21 25 15 31
13 11 -3z m916 -1 c4 -12 -5 -15 -57 -14 -54 1 -58 2 -28 9 19 5 43 7 53 5 10
-2 18 0 18 6 0 14 7 11 14 -6z m1086 -34 c12 -8 11 -10 -7 -8 -12 0 -19 5 -16
11 4 6 -1 6 -13 2 -10 -4 -15 -4 -11 0 4 4 -1 13 -11 21 -13 10 -9 10 13 -1
17 -8 37 -20 45 -25z m-912 22 c-10 -2 -26 -2 -35 0 -10 3 -2 5 17 5 19 0 27
-2 18 -5z m67 -3 c-3 -5 -12 -10 -18 -10 -7 0 -6 4 3 10 19 12 23 12 15 0z
m42 -6 c-3 -3 -12 -4 -19 -1 -8 3 -5 6 6 6 11 1 17 -2 13 -5z m-510 -10 c-3
-3 -12 -4 -19 -1 -8 3 -5 6 6 6 11 1 17 -2 13 -5z m585 -23 c313 -67 568 -204
801 -430 176 -171 302 -375 384 -620 48 -145 55 -156 106 -176 41 -15 50 -15
143 0 335 58 667 -52 909 -302 67 -68 84 -81 95 -70 12 10 12 9 1 -5 -11 -15
-8 -24 22 -65 45 -61 118 -209 145 -293 119 -365 56 -750 -172 -1054 -168
-223 -443 -396 -732 -460 -175 -39 -313 -46 -929 -46 l-577 0 -20 -26 c-32
-40 -74 -30 -105 26 -40 72 -182 308 -235 391 -26 41 -48 83 -48 92 0 20 285
450 325 490 50 50 58 40 54 -75 l-4 -103 225 0 c124 -1 245 2 270 6 25 3 -74
7 -220 7 l-265 0 4 101 c3 90 1 101 -15 108 -13 5 -28 -5 -57 -38 -35 -40
-298 -423 -325 -476 -10 -19 4 -47 124 -245 180 -294 176 -288 159 -281 -8 3
-15 9 -15 14 0 5 -450 9 -1074 9 -668 0 -1113 4 -1177 10 -268 27 -487 128
-658 303 -24 25 -49 43 -55 41 -11 -4 -41 30 -60 66 -8 15 15 -10 40 -44 7
-11 16 -17 19 -14 4 3 -12 30 -35 59 -63 83 -137 241 -165 353 -78 309 -17
605 179 870 30 41 59 77 65 81 6 3 11 11 11 17 0 7 -15 -1 -32 -18 l-33 -29
35 40 c19 22 37 42 39 45 2 3 1 -4 -3 -14 -5 -16 -4 -17 8 -7 8 7 13 21 11 32
-2 11 0 17 6 14 5 -4 7 -11 4 -16 -13 -21 10 -6 55 35 99 88 262 168 423 206
46 11 150 24 231 30 151 10 196 22 215 59 6 10 20 65 32 122 76 368 262 694
523 919 47 40 83 78 79 83 -3 6 -1 7 5 3 7 -4 38 11 70 33 188 127 415 216
657 257 118 20 411 11 537 -15z m-727 -2 c3 -3 -11 -10 -30 -16 -20 -6 -35 -7
-35 -2 0 5 9 9 21 9 11 0 18 4 15 9 -6 10 19 9 29 0z m802 5 c-3 -3 -12 -4
-19 -1 -8 3 -5 6 6 6 11 1 17 -2 13 -5z m-877 -24 c0 -5 -9 -14 -20 -20 -14
-7 -20 -7 -20 0 0 5 8 11 18 11 15 1 14 2 -2 6 -15 4 -16 7 -5 13 14 9 29 4
29 -10z m1598 -7 c56 -41 58 -43 33 -43 -12 0 -20 4 -16 9 7 13 -26 30 -45 23
-8 -2 -12 -1 -8 3 4 5 3 14 -3 22 -18 21 -1 15 39 -14z m-623 7 c13 -5 14 -9
5 -9 -8 0 -24 4 -35 9 -13 5 -14 9 -5 9 8 0 24 -4 35 -9z m38 -5 c-3 -9 -8
-14 -10 -11 -3 3 -2 9 2 15 9 16 15 13 8 -4z m-1616 -12 c0 -21 -15 -33 -42
-32 -17 0 -16 3 10 24 17 14 30 25 31 25 0 0 1 -8 1 -17z m548 -13 c-3 -5 -12
-10 -18 -10 -7 0 -6 4 3 10 19 12 23 12 15 0z m1120 0 c13 -5 14 -9 5 -9 -8 0
-24 4 -35 9 -13 5 -14 9 -5 9 8 0 24 -4 35 -9z m-1185 -28 c-8 -3 -45 -20 -82
-39 -38 -18 -68 -31 -68 -28 0 2 21 16 48 29 26 14 41 25 35 26 -7 0 -13 5
-13 12 0 9 3 9 12 0 15 -15 31 -16 22 0 -5 8 -2 9 9 5 9 -3 19 -2 22 4 4 5 11
6 18 2 8 -5 7 -8 -3 -11z m1264 -7 c20 -9 42 -13 48 -9 7 5 8 2 3 -6 -6 -10
-3 -12 14 -7 13 3 20 3 17 0 -3 -4 -1 -12 5 -19 9 -11 -117 39 -130 52 -8 8 7
4 43 -11z m-1834 -10 c-10 -12 -10 -15 0 -15 7 0 1 -10 -14 -21 -15 -12 -30
-19 -33 -15 -9 9 -44 -25 -37 -35 3 -5 -3 -9 -13 -9 -13 1 0 17 41 55 58 54
81 70 56 40z m444 -1 c5 -13 4 -14 -7 -6 -8 7 -18 8 -22 4 -5 -4 -5 -1 -1 6
10 17 23 15 30 -4z m2026 -79 c47 -43 156 -161 198 -217 12 -15 11 -16 -17 -5
-17 6 -33 17 -36 25 -3 8 0 10 6 6 7 -4 10 -1 7 7 -3 8 -14 15 -26 17 -14 2
-25 15 -32 37 -12 36 -56 79 -71 69 -5 -3 -9 3 -9 14 0 22 -32 54 -75 73 -16
8 -30 19 -30 24 0 6 -4 17 -9 25 -10 17 11 0 94 -75z m-2070 14 c-44 -29 -67
-38 -67 -24 0 7 5 11 11 9 7 -3 20 2 31 10 11 9 25 15 30 16 6 0 3 -5 -5 -11z
m1575 1 c3 -6 -1 -7 -9 -4 -18 7 -21 14 -7 14 6 0 13 -4 16 -10z m95 -56 c0
-2 -13 2 -30 11 -16 9 -30 18 -30 21 0 2 14 -2 30 -11 17 -9 30 -18 30 -21z
m-1795 -23 c-3 -6 -11 -11 -16 -11 -5 0 -4 6 3 14 14 16 24 13 13 -3z m1877
-10 c15 8 19 8 14 0 -4 -6 -2 -11 4 -11 7 0 6 -5 -2 -13 -10 -12 -19 -9 -50
12 -20 14 -37 30 -38 34 0 5 12 -1 26 -12 21 -16 30 -18 46 -10z m-2390 -73
c-13 -13 -16 -32 -4 -24 4 2 9 -7 10 -22 l1 -27 -19 23 c-17 20 -39 15 -26 -6
3 -5 -1 -9 -9 -9 -8 0 -15 2 -15 3 0 6 62 74 68 74 3 0 1 -5 -6 -12z m374 -27
c-38 -37 -59 -37 -32 1 9 12 16 16 16 9 0 -11 3 -11 15 -1 8 7 13 16 10 19 -2
4 3 8 11 8 10 0 3 -13 -20 -36z m2098 27 c-3 -4 0 -8 6 -8 6 0 9 -4 6 -9 -4
-5 -3 -11 1 -13 5 -2 22 -19 38 -39 17 -19 7 -12 -22 17 -29 28 -54 49 -57 47
-2 -2 -6 0 -9 4 -3 5 5 9 18 9 13 0 21 -4 19 -8z m-2154 -72 c0 -2 -8 -10 -17
-17 -16 -13 -17 -12 -4 4 13 16 21 21 21 13z m2630 -57 c9 -16 7 -19 -12 -19
-18 0 -20 2 -9 9 13 8 13 12 0 27 -8 11 -9 15 -2 10 7 -4 18 -16 23 -27z m-47
1 c3 -11 1 -18 -4 -14 -5 3 -9 12 -9 20 0 20 7 17 13 -6z m-3012 -13 c-10 -9
-11 -8 -5 6 3 10 9 15 12 12 3 -3 0 -11 -7 -18z m2754 -30 c4 5 5 3 2 -4 -4
-6 -1 -14 5 -16 7 -3 8 -6 2 -6 -6 -1 -21 11 -35 26 -17 20 -18 23 -3 10 11
-9 24 -14 29 -10z m-2463 -59 c-33 -40 -74 -95 -91 -122 -17 -28 -38 -51 -46
-52 -8 -1 -13 2 -9 7 3 5 9 7 13 5 10 -6 45 63 43 84 -1 10 0 11 4 2 4 -8 12
-5 26 13 10 14 16 30 12 36 -4 7 -3 9 3 6 13 -8 54 35 57 59 2 11 8 19 14 19
6 0 14 3 18 8 4 4 9 7 11 7 3 0 -22 -33 -55 -72z m2842 -12 c16 -29 16 -30 0
-8 -9 12 -25 22 -35 22 -15 0 -19 7 -19 33 l0 32 19 -24 c10 -14 26 -38 35
-55z m-3171 34 c-3 -11 -9 -20 -15 -20 -5 0 -4 9 2 20 6 11 12 20 14 20 2 0 2
-9 -1 -20z m2837 -35 c14 -19 14 -19 -2 -6 -10 7 -18 18 -18 24 0 6 1 8 3 6 1
-2 9 -13 17 -24z m-2885 -35 c-9 -18 -19 -30 -21 -27 -3 2 3 18 13 35 23 40
29 33 8 -8z m2916 -7 c13 -16 12 -17 -3 -4 -10 7 -18 15 -18 17 0 8 8 3 21
-13z m55 -83 c15 -22 25 -42 23 -44 -2 -2 -16 16 -31 40 -34 55 -28 58 8 4z
m-3036 -28 c0 -5 -7 -17 -15 -28 -14 -18 -14 -17 -4 9 12 27 19 34 19 19z m18
-53 c-3 -8 -7 -3 -11 10 -4 17 -3 21 5 13 5 -5 8 -16 6 -23z m265 14 c-4 -11
-3 -14 6 -9 7 5 -1 -16 -18 -46 -35 -62 -116 -259 -126 -306 -4 -18 -11 -30
-16 -26 -6 3 -8 -4 -5 -18 3 -12 2 -39 -3 -58 -8 -31 -9 -29 -8 25 0 33 5 63
11 67 7 5 7 8 -2 8 -9 0 -10 5 -2 19 5 11 10 32 10 48 0 18 3 24 9 15 6 -11
10 -11 18 0 14 17 33 85 25 92 -3 3 -1 6 4 6 5 0 9 16 8 36 -2 30 1 35 16 31
12 -3 22 5 34 30 9 18 16 38 16 43 0 13 19 60 24 60 3 0 2 -7 -1 -17z m2812
-25 c17 -18 24 -29 18 -24 -7 4 -13 2 -13 -3 0 -6 5 -11 10 -11 6 0 10 -5 10
-11 0 -7 8 -18 18 -25 14 -11 15 -13 2 -14 -9 0 -29 26 -48 60 -17 33 -30 60
-29 60 1 0 16 -14 32 -32z m-3165 -116 c-10 -20 -23 -48 -29 -62 l-11 -25 6
25 c10 44 38 109 45 104 4 -2 -1 -21 -11 -42z m3668 -29 c-21 -2 -38 -8 -38
-14 0 -5 -5 -9 -11 -9 -5 0 -7 5 -4 10 3 6 -1 10 -10 10 -10 0 -13 -5 -9 -12
5 -9 2 -9 -9 1 -9 7 -17 15 -17 17 0 2 30 3 68 2 41 -1 52 -3 30 -5z m182 -13
c-25 -4 -52 -4 -60 1 -9 5 8 8 45 7 l60 -1 -45 -7z m103 -7 c-7 -2 -21 -2 -30
0 -10 3 -4 5 12 5 17 0 24 -2 18 -5z m-699 -53 c5 -17 4 -20 -2 -10 -5 8 -13
26 -16 40 -5 17 -4 20 2 10 5 -8 13 -26 16 -40z m821 20 c13 -6 15 -9 5 -9 -8
0 -22 4 -30 9 -18 12 -2 12 25 0z m-4118 -32 c-3 -8 -6 -5 -6 6 -1 11 2 17 5
13 3 -3 4 -12 1 -19z m4178 12 c13 -6 15 -9 5 -9 -8 0 -22 4 -30 9 -18 12 -2
12 25 0z m0 -20 c17 -8 16 -8 -7 -7 -16 1 -28 5 -28 9 0 10 9 9 35 -2z m60 0
c19 -8 19 -9 -2 -9 -12 -1 -25 4 -28 9 -7 12 2 12 30 0z m-4260 -90 c-4 -23
-9 -39 -12 -36 -3 2 -2 23 2 46 4 23 9 39 12 36 3 -2 2 -23 -2 -46z m3354 10
c0 -10 -3 -8 -9 5 -12 27 -12 43 0 25 5 -8 9 -22 9 -30z m1024 21 c5 -1 5 -5
2 -11 -3 -5 0 -7 7 -5 8 3 22 -1 32 -8 16 -12 12 -13 -32 -7 -47 6 -84 20 -53
20 7 0 10 4 7 9 -4 5 2 8 11 6 10 -2 22 -4 26 -4z m88 -58 c13 -16 12 -17 -3
-4 -10 7 -18 15 -18 17 0 8 8 3 21 -13z m-1093 -18 c-3 -3 -9 2 -12 12 -6 14
-5 15 5 6 7 -7 10 -15 7 -18z m-3368 -20 c0 -8 -4 -15 -10 -15 -5 0 -7 7 -4
15 4 8 8 15 10 15 2 0 4 -7 4 -15z m-50 1 c0 -2 -7 -6 -15 -10 -8 -3 -15 -1
-15 4 0 6 7 10 15 10 8 0 15 -2 15 -4z m3469 -18 c8 3 11 0 7 -7 -4 -6 -2 -11
5 -11 7 0 10 -2 7 -5 -9 -9 -56 16 -63 33 -5 14 -4 14 12 0 10 -8 24 -13 32
-10z m-3551 5 c-10 -2 -26 -2 -35 0 -10 3 -2 5 17 5 19 0 27 -2 18 -5z m3795
-10 c-13 -2 -33 -2 -45 0 -13 2 -3 4 22 4 25 0 35 -2 23 -4z m190 0 c-13 -2
-33 -2 -45 0 -13 2 -3 4 22 4 25 0 35 -2 23 -4z m-280 -10 c-7 -2 -21 -2 -30
0 -10 3 -4 5 12 5 17 0 24 -2 18 -5z m422 -15 c13 -5 9 -6 -15 -2 -19 4 -42
10 -50 15 -18 11 34 1 65 -13z m-492 5 c-7 -2 -19 -2 -25 0 -7 3 -2 5 12 5 14
0 19 -2 13 -5z m-3846 -9 c-3 -3 -12 -4 -19 -1 -8 3 -5 6 6 6 11 1 17 -2 13
-5z m-28 -13 c20 -13 -3 -23 -36 -15 -25 7 -25 8 -8 15 26 10 28 10 44 0z
m-59 -22 c13 -9 12 -10 -3 -5 -10 3 -34 -1 -54 -9 -50 -21 -56 -17 -8 6 47 22
46 22 65 8z m656 -73 c-13 -52 -46 -110 -46 -78 0 7 5 12 10 12 6 0 10 5 10
10 0 6 -6 10 -14 10 -8 0 -17 7 -20 16 -5 14 -4 15 9 4 12 -10 15 -10 15 1 0
12 2 12 9 0 6 -10 11 -4 16 20 3 19 9 42 12 53 4 13 1 16 -7 11 -9 -6 -11 -4
-5 4 17 28 23 -8 11 -63z m3979 37 c6 3 12 -1 12 -8 0 -10 -7 -10 -33 3 -18 8
-31 19 -28 24 3 4 12 1 21 -7 9 -9 21 -14 28 -12z m484 -23 c12 -17 17 -30 11
-30 -5 0 -10 6 -11 13 0 10 -2 10 -6 0 -2 -7 -10 -13 -16 -13 -8 0 -8 3 0 11
12 12 7 39 -7 39 -5 0 -11 -8 -13 -17 -3 -10 -4 -6 -4 8 1 32 16 29 46 -11z
m-5242 19 c-9 -6 -15 -14 -12 -19 3 -5 0 -12 -6 -16 -8 -4 -9 -3 -5 4 8 13 -4
15 -28 6 -9 -3 -13 -11 -9 -18 3 -6 3 -8 -2 -4 -4 4 -16 3 -26 -3 -11 -5 -19
-6 -19 -1 0 5 24 20 53 34 52 25 88 37 54 17z m4890 -66 c-4 -3 1 -15 10 -27
18 -20 18 -20 -8 0 -18 12 -23 21 -15 26 14 10 21 10 13 1z m424 -35 c18 -24
27 -38 20 -31 -8 6 -19 9 -26 6 -8 -2 -19 6 -26 19 -11 21 -11 22 4 9 22 -17
22 -3 0 21 -9 10 -14 18 -10 18 3 0 20 -19 38 -42z m-5474 7 c0 -8 -4 -12 -9
-9 -4 3 -8 -2 -8 -10 0 -10 -9 -16 -26 -16 -15 0 -23 4 -19 11 4 6 9 8 12 5 3
-3 14 4 26 15 25 23 24 23 24 4z m880 -17 c-3 -8 -6 -5 -6 6 -1 11 2 17 5 13
3 -3 4 -12 1 -19z m4266 -41 c4 3 7 4 7 0 0 -18 -20 -13 -41 11 l-24 27 26
-23 c14 -12 29 -19 32 -15z m-4385 16 c-10 -2 -28 -2 -40 0 -13 2 -5 4 17 4
22 1 32 -1 23 -4z m80 0 c-10 -2 -28 -2 -40 0 -13 2 -5 4 17 4 22 1 32 -1 23
-4z m-185 -10 c-7 -2 -19 -2 -25 0 -7 3 -2 5 12 5 14 0 19 -2 13 -5z m-744 -6
c-2 -1 -13 -9 -24 -17 -19 -14 -19 -14 -6 3 7 9 18 17 24 17 6 0 8 -1 6 -3z
m608 -13 c-3 -3 -12 -4 -19 -1 -8 3 -5 6 6 6 11 1 17 -2 13 -5z m4669 -35 c19
-22 19 -22 -3 -10 -24 12 -39 31 -25 31 5 0 17 -10 28 -21z m-5364 -22 c-18
-18 -29 -37 -25 -42 5 -4 3 -5 -4 -2 -13 8 -85 -71 -78 -84 3 -4 0 -11 -6 -15
-8 -4 -9 -3 -5 4 4 7 2 12 -3 12 -6 0 -11 -5 -11 -12 0 -6 -3 -8 -7 -4 -6 6
154 176 166 176 3 0 -10 -15 -27 -33z m581 26 c-7 -2 -19 -2 -25 0 -7 3 -2 5
12 5 14 0 19 -2 13 -5z m-82 -28 c-18 -8 -36 -15 -40 -15 -13 1 45 29 59 29 8
0 0 -6 -19 -14z m5259 -26 c15 -28 5 -23 -15 7 -9 15 -12 23 -6 20 6 -4 16
-16 21 -27z m-5310 7 c0 -2 -7 -6 -15 -10 -8 -3 -15 -1 -15 4 0 6 7 10 15 10
8 0 15 -2 15 -4z m4970 -21 c13 -14 21 -25 18 -25 -2 0 -15 11 -28 25 -13 14
-21 25 -18 25 2 0 15 -11 28 -25z m369 -45 c11 -24 11 -24 -3 -6 -9 11 -16 24
-16 30 0 12 5 7 19 -24z m-5450 7 c-2 -1 -13 -9 -24 -17 -19 -14 -19 -14 -6 3
7 9 18 17 24 17 6 0 8 -1 6 -3z m-49 -31 c0 -2 -8 -10 -17 -17 -16 -13 -17
-12 -4 4 13 16 21 21 21 13z m-360 -10 c0 -3 -4 -8 -10 -11 -5 -3 -10 -1 -10
4 0 6 5 11 10 11 6 0 10 -2 10 -4z m5561 -13 c13 -16 12 -17 -3 -4 -10 7 -18
15 -18 17 0 8 8 3 21 -13z m326 1 c2 -6 -3 -11 -12 -11 -8 0 -15 7 -15 15 0
15 22 12 27 -4z m-5971 -59 c0 -20 -6 -35 -13 -35 -7 0 -10 7 -7 18 5 14 3 14
-10 -2 -9 -11 -16 -16 -16 -12 0 6 40 63 46 65 1 1 1 -15 0 -34z m6043 -130
c0 -5 -5 3 -11 20 -10 26 -12 27 -18 10 -5 -13 -8 -2 -8 30 l0 50 19 -50 c10
-27 19 -54 18 -60z m-6135 14 c-14 -22 -26 -49 -27 -58 0 -10 -7 -18 -13 -18
-14 0 3 39 38 90 30 42 31 32 2 -14z m5844 -12 c7 -16 8 -26 3 -23 -5 3 -14
20 -20 38 -13 38 0 26 17 -15z m311 -67 c-1 -10 -2 -11 -6 -2 -2 6 -9 10 -14
7 -5 -4 -6 2 -2 11 5 13 3 15 -8 9 -12 -7 -12 -6 1 9 13 17 14 17 21 -1 4 -10
8 -25 8 -33z m-5871 10 c-7 -11 -17 -20 -22 -20 -5 0 -1 9 9 20 10 11 20 20
22 20 2 0 -2 -9 -9 -20z m5606 -65 c4 -20 3 -25 -3 -15 -5 8 -11 31 -15 50 -7
41 7 13 18 -35z m273 13 c-3 -8 -6 -5 -6 6 -1 11 2 17 5 13 3 -3 4 -12 1 -19z
m-5917 -8 c-6 -11 -13 -20 -16 -20 -2 0 0 9 6 20 6 11 13 20 16 20 2 0 0 -9
-6 -20z m-32 -55 c-6 -14 -13 -24 -14 -22 -6 6 9 47 17 47 5 0 3 -11 -3 -25z
m5976 -45 c3 -19 7 -66 9 -105 3 -38 2 -51 0 -27 -2 23 -8 42 -12 42 -4 0 -8
29 -8 65 0 72 2 78 11 25z m-6023 -55 c-14 -35 -28 -61 -30 -59 -2 2 7 29 20
61 13 32 22 65 21 73 -2 12 -1 12 6 2 6 -9 0 -36 -17 -77z m-276 31 c0 -13 -3
-22 -7 -19 -5 2 -8 -4 -9 -14 0 -10 -3 -13 -5 -7 -4 10 11 64 18 64 2 0 3 -11
3 -24z m6039 -7 c7 -37 8 -64 2 -58 -9 9 -24 89 -16 89 4 0 10 -14 14 -31z
m-6077 -101 c-3 -8 -6 -5 -6 6 -1 11 2 17 5 13 3 -3 4 -12 1 -19z m276 -26
c-3 -12 -9 -19 -14 -17 -4 3 -6 -12 -4 -32 l5 -38 -11 32 c-10 26 -8 35 7 56
22 29 25 29 17 -1z m-280 -29 c-4 -21 -10 -49 -15 -63 -7 -21 -7 -19 -3 9 3
18 5 46 5 62 0 16 4 29 9 29 6 0 7 -17 4 -37z m254 -85 c-3 -8 -6 -5 -6 6 -1
11 2 17 5 13 3 -3 4 -12 1 -19z m-280 -95 c-3 -10 -5 -2 -5 17 0 19 2 27 5 18
2 -10 2 -26 0 -35z m6386 5 c-8 -47 -14 -49 -11 -5 1 20 6 37 10 37 4 0 5 -15
1 -32z m-276 -75 c-3 -10 -5 -4 -5 12 0 17 2 24 5 18 2 -7 2 -21 0 -30z m260
-60 c-3 -10 -5 -4 -5 12 0 17 2 24 5 18 2 -7 2 -21 0 -30z m-6370 -15 c-3 -8
-6 -5 -6 6 -1 11 2 17 5 13 3 -3 4 -12 1 -19z m6360 -40 c-3 -7 -5 -2 -5 12 0
14 2 19 5 13 2 -7 2 -19 0 -25z m-6032 -224 c8 -19 11 -34 6 -34 -9 0 -27 52
-36 102 -4 21 -10 36 -14 34 -3 -2 -7 24 -8 58 l-2 61 20 -94 c11 -51 26 -109
34 -127z m5752 194 c-3 -8 -6 -5 -6 6 -1 11 2 17 5 13 3 -3 4 -12 1 -19z m-21
-69 c-18 -41 -21 -29 -4 18 7 19 14 30 16 25 1 -4 -4 -24 -12 -43z m-6039 -51
c-3 -8 -6 -5 -6 6 -1 11 2 17 5 13 3 -3 4 -12 1 -19z m5999 -45 c-8 -15 -15
-25 -16 -21 0 12 23 58 27 54 3 -2 -2 -17 -11 -33z m-5977 -23 c1 -13 0 -13
-9 0 -5 8 -9 24 -9 35 l0 20 9 -20 c5 -11 9 -27 9 -35z m6251 9 c0 8 2 12 5 9
3 -3 2 -13 -1 -22 -5 -14 -9 -15 -15 -4 -5 7 -9 18 -9 23 0 6 5 3 10 -5 8 -12
10 -12 10 -1z m-6232 -89 c0 -9 -3 -7 -8 5 -5 11 -8 29 -8 40 0 16 2 15 8 -5
4 -14 8 -32 8 -40z m5907 1 c-8 -17 -21 -33 -27 -37 -8 -5 -7 1 3 16 8 14 19
31 23 38 15 25 16 11 1 -17z m-5585 -51 c32 -64 41 -98 11 -41 -18 33 -19 34
-26 12 -4 -12 -9 -20 -12 -18 -2 3 0 15 7 26 6 12 7 21 1 21 -5 0 -11 14 -13
30 -3 17 -3 30 -1 30 1 0 16 -27 33 -60z m5871 27 c-10 -9 -11 -8 -5 6 3 10 9
15 12 12 3 -3 0 -11 -7 -18z m-337 -52 c-8 -13 -13 -28 -11 -32 3 -5 -3 -10
-14 -10 -17 -2 -17 1 7 33 30 39 42 46 18 9z m298 -26 l-19 -31 0 27 c0 17 2
22 7 15 6 -9 10 -6 15 9 4 13 9 20 12 17 3 -3 -4 -19 -15 -37z m-5825 -15 c-3
-3 -12 -4 -19 -1 -8 3 -5 6 6 6 11 1 17 -2 13 -5z m5471 -34 c-7 -10 -14 -17
-17 -15 -4 4 18 35 25 35 2 0 -1 -9 -8 -20z m-5417 -37 c-9 -16 -10 -14 -11
12 0 21 3 26 11 18 8 -8 8 -16 0 -30z m5730 14 c-10 -9 -11 -8 -5 6 3 10 9 15
12 12 3 -3 0 -11 -7 -18z m-6022 -34 c12 -24 19 -43 16 -43 -5 0 -45 75 -45
86 0 11 6 2 29 -43z m5655 -4 c-16 -17 -28 -38 -26 -48 2 -12 -4 -17 -23 -17
-24 0 -23 2 22 48 26 26 49 48 52 48 3 0 -8 -14 -25 -31z m-5236 -102 c27 -28
37 -44 27 -44 -8 0 -15 6 -15 13 0 6 -16 26 -35 43 -20 17 -32 31 -27 31 4 0
27 -19 50 -43z m5140 -2 c0 -14 -5 -25 -10 -25 -5 0 -6 5 -2 11 4 7 1 10 -7 7
-8 -3 -14 -10 -14 -15 0 -6 -4 -15 -9 -20 -5 -5 -6 -3 -2 5 8 13 -4 16 -20 5
-5 -5 7 6 26 24 19 18 36 32 36 33 1 0 2 -11 2 -25z m-5479 -25 l23 -35 -26
30 c-14 17 -26 34 -26 39 0 11 0 11 29 -34z m5841 27 c0 -2 -10 -12 -22 -23
l-23 -19 19 23 c18 21 26 27 26 19z m-5365 -115 c18 -11 18 -11 -7 -10 -16 1
-28 7 -28 12 0 5 -8 19 -17 30 -18 21 -17 21 7 0 14 -12 34 -26 45 -32z m4860
18 c-3 -5 -12 -10 -18 -10 -7 0 -6 4 3 10 19 12 23 12 15 0z m-5235 -55 c13
-14 21 -25 18 -25 -2 0 -15 11 -28 25 -13 14 -21 25 -18 25 2 0 15 -11 28 -25z
m514 -56 c-3 -5 -21 3 -39 17 -19 14 -38 23 -43 20 -5 -3 -9 1 -9 8 0 9 14 6
48 -12 27 -13 46 -29 43 -33z m4616 56 c0 -2 -10 -9 -22 -15 -22 -11 -22 -10
-4 4 21 17 26 19 26 11z m460 2 c0 -2 -10 -13 -23 -25 -18 -17 -24 -19 -24 -8
0 8 4 13 8 11 3 -3 12 2 19 10 12 14 20 19 20 12z m-5035 -75 c-3 -3 -11 0
-18 7 -9 10 -8 11 6 5 10 -3 15 -9 12 -12z m-470 -12 c10 -11 16 -20 13 -20
-3 0 -13 9 -23 20 -10 11 -16 20 -13 20 3 0 13 -9 23 -20z m543 -9 c26 -11 54
-21 62 -24 9 -2 3 -6 -13 -9 -15 -3 -25 -3 -22 0 6 6 -45 33 -54 28 -3 -2 -12
2 -19 10 -17 19 -10 18 46 -5z m4867 9 c-3 -5 -16 -15 -28 -21 -19 -9 -19 -8
3 10 28 23 34 26 25 11z m-645 -30 c-8 -5 -19 -10 -25 -10 -5 0 -3 5 5 10 8 5
20 10 25 10 6 0 3 -5 -5 -10z m-4689 -37 c13 -16 12 -17 -3 -4 -17 13 -22 21
-14 21 2 0 10 -8 17 -17z m817 -10 c-10 -2 -28 -2 -40 0 -13 2 -5 4 17 4 22 1
32 -1 23 -4z m65 0 c-7 -2 -21 -2 -30 0 -10 3 -4 5 12 5 17 0 24 -2 18 -5z
m1097 -3 c0 -5 -2 -10 -4 -10 -3 0 -8 5 -11 10 -3 6 -1 10 4 10 6 0 11 -4 11
-10z m553 3 c-7 -2 -19 -2 -25 0 -7 3 -2 5 12 5 14 0 19 -2 13 -5z m320 0 c-7
-2 -19 -2 -25 0 -7 3 -2 5 12 5 14 0 19 -2 13 -5z m80 0 c-7 -2 -19 -2 -25 0
-7 3 -2 5 12 5 14 0 19 -2 13 -5z m242 -3 c3 -5 1 -10 -4 -10 -6 0 -11 5 -11
10 0 6 2 10 4 10 3 0 8 -4 11 -10z m55 0 c-8 -5 -22 -10 -30 -10 -13 0 -13 1
0 10 8 5 22 10 30 10 13 0 13 -1 0 -10z m74 -2 c-3 -4 -9 -8 -15 -8 -5 0 -9 4
-9 8 0 5 7 9 15 9 8 0 12 -4 9 -9z m-157 -20 c-3 -8 -6 -5 -6 6 -1 11 2 17 5
13 3 -3 4 -12 1 -19z m-3020 -35 c-4 -3 1 -12 11 -20 15 -13 15 -13 -6 -3 -19
9 -23 30 -5 30 4 0 3 -3 0 -7z m233 -123 c8 -5 11 -10 5 -10 -5 0 -17 5 -25
10 -8 5 -10 10 -5 10 6 0 17 -5 25 -10z m107 -36 c-3 -3 -12 -4 -19 -1 -8 3
-5 6 6 6 11 1 17 -2 13 -5z m68 -14 c13 -5 14 -9 5 -9 -8 0 -24 4 -35 9 -13 5
-14 9 -5 9 8 0 24 -4 35 -9z m4152 4 c-3 -3 -12 -4 -19 -1 -8 3 -5 6 6 6 11 1
17 -2 13 -5z m-3880 -40 c-3 -3 -12 -4 -19 -1 -8 3 -5 6 6 6 11 1 17 -2 13 -5z
m71 -1 c-10 -2 -28 -2 -40 0 -13 2 -5 4 17 4 22 1 32 -1 23 -4z m85 0 c-7 -2
-21 -2 -30 0 -10 3 -4 5 12 5 17 0 24 -2 18 -5z m1005 0 c-179 -2 -476 -2
-660 0 -183 1 -36 2 327 2 363 0 513 -1 333 -2z m359 1 c-3 -3 -12 -4 -19 -1
-8 3 -5 6 6 6 11 1 17 -2 13 -5z m1331 -1 c-240 -2 -636 -2 -880 0 -244 1 -47
2 437 2 484 0 683 -1 443 -2z m500 0 c-10 -2 -28 -2 -40 0 -13 2 -5 4 17 4 22
1 32 -1 23 -4z m140 0 c-21 -2 -57 -2 -80 0 -24 2 -7 4 37 4 44 0 63 -2 43 -4z"/>
<path d="M4473 8091 c-46 -12 -112 -54 -155 -98 -39 -40 -108 -152 -282 -455
-59 -104 -105 -192 -102 -197 5 -8 93 -59 256 -149 25 -13 59 -32 75 -42 17
-10 79 -43 138 -75 94 -49 111 -55 123 -43 19 19 400 708 408 739 4 13 -23
-30 -59 -96 -36 -66 -70 -127 -75 -135 -5 -8 -29 -51 -53 -95 -24 -44 -59
-107 -77 -140 -18 -33 -60 -108 -92 -167 -33 -60 -62 -108 -65 -108 -4 0 -54
26 -112 59 -58 32 -137 75 -176 96 -38 21 -74 41 -80 45 -5 4 -46 27 -90 50
-44 24 -88 49 -97 55 -16 11 -9 26 70 166 259 453 298 508 398 559 l49 25 445
3 c628 4 612 11 780 -315 35 -68 65 -121 67 -119 7 6 -97 207 -142 276 -53 81
-86 113 -150 142 -50 23 -53 23 -510 25 -253 1 -474 -2 -492 -6z"/>
<path d="M4971 7760 c8 -14 46 -77 83 -140 38 -63 97 -164 133 -223 36 -60 63
-109 61 -110 -1 -2 -40 -20 -86 -42 -78 -37 -130 -75 -104 -75 7 0 12 4 12 10
0 5 43 30 95 55 52 25 95 49 95 52 0 5 -37 69 -227 391 -30 50 -60 95 -66 99
-7 4 -5 -4 4 -17z"/>
<path d="M5891 7680 c-57 -28 -101 -53 -98 -56 3 -3 45 15 95 40 49 25 97 46
106 46 30 0 28 -4 -181 -429 l-96 -194 -86 6 c-81 6 -292 28 -446 46 -38 5
-73 6 -77 2 -4 -4 54 -13 130 -20 75 -7 193 -19 262 -26 69 -7 147 -16 174
-18 l48 -5 146 296 c135 276 163 349 136 359 -5 2 -57 -19 -113 -47z"/>
<path d="M5068 7143 c7 -3 16 -2 19 1 4 3 -2 6 -13 5 -11 0 -14 -3 -6 -6z"/>
<path d="M5910 6999 c-215 -124 -291 -168 -352 -206 l-37 -23 70 -122 c38 -68
133 -236 211 -375 78 -139 144 -250 146 -248 5 5 -42 91 -303 549 -123 216
-123 187 0 258 39 22 99 57 135 78 36 20 124 72 196 114 73 42 134 76 137 76
3 0 38 -60 77 -132 40 -73 101 -182 135 -243 106 -186 127 -226 145 -279 10
-28 19 -42 19 -31 1 28 -42 116 -158 323 -54 97 -124 223 -155 280 -32 56 -58
101 -59 101 -1 -1 -94 -55 -207 -120z"/>
<path d="M3816 7008 c-182 -4 -313 -11 -319 -17 -15 -15 -1 -38 40 -64 81 -50
136 -81 130 -71 -3 6 -42 33 -87 59 -44 27 -79 54 -77 60 4 12 176 22 437 24
l196 1 153 -287 c127 -239 151 -290 142 -305 -9 -14 -8 -18 3 -18 9 0 13 10
12 28 -2 29 -278 557 -305 582 -14 14 -55 15 -325 8z"/>
<path d="M3583 6702 c-109 -183 -121 -208 -133 -272 -22 -115 -20 -121 245
-604 186 -338 233 -402 327 -448 29 -14 80 -31 112 -37 62 -12 633 -15 674 -5
l22 6 0 334 0 334 -442 -2 -443 -3 438 -2 437 -3 0 -325 c0 -303 -1 -325 -17
-326 -118 -6 -674 2 -696 10 -15 6 -27 8 -27 6 0 -3 -24 6 -52 21 -81 40 -134
105 -227 275 -47 85 -126 229 -177 320 -172 309 -185 344 -164 446 15 69 25
91 134 272 47 78 82 141 78 141 -4 0 -44 -62 -89 -138z"/>
<path d="M4195 6485 c-8 -19 -108 -201 -206 -374 -27 -47 -46 -87 -44 -90 6
-6 -1 -18 100 164 48 88 106 191 127 229 21 38 37 74 34 80 -2 6 -7 2 -11 -9z"/>
<path d="M4265 6474 c69 -43 135 -75 135 -64 0 5 -5 10 -11 10 -6 0 -41 18
-78 40 -73 43 -111 55 -46 14z"/>
<path d="M6487 6334 c-9 -71 -34 -127 -149 -329 -47 -82 -98 -172 -113 -200
-15 -27 -62 -108 -104 -179 -153 -259 -201 -286 -513 -286 -97 0 -179 -3 -181
-8 -3 -4 29 -6 71 -5 43 2 138 4 212 6 121 2 141 6 192 29 110 51 140 94 423
597 152 270 179 332 173 398 -3 33 -4 30 -11 -23z"/>
<path d="M5405 5278 c-4 -18 -2 -44 4 -58 8 -21 10 -16 10 33 1 64 -5 74 -14
25z"/>
<path d="M5405 5180 c3 -6 -5 -10 -19 -10 -14 0 -28 -4 -31 -10 -8 -13 21 -13
46 0 20 11 26 30 8 30 -5 0 -7 -4 -4 -10z"/>
<path d="M3810 8660 c-9 -6 -10 -10 -3 -10 6 0 15 5 18 10 8 12 4 12 -15 0z"/>
<path d="M3714 8585 c-10 -8 -14 -15 -8 -15 6 0 17 7 24 15 16 19 9 19 -16 0z"/>
<path d="M6330 8401 c0 -6 4 -13 10 -16 6 -3 7 1 4 9 -7 18 -14 21 -14 7z"/>
<path d="M3460 7830 c-1 -3 -3 -16 -6 -30 -3 -21 -2 -22 7 -7 6 10 8 23 5 30
-2 7 -5 10 -6 7z"/>
<path d="M7465 7620 c-3 -5 -1 -10 4 -10 6 0 11 5 11 10 0 6 -2 10 -4 10 -3 0
-8 -4 -11 -10z"/>
<path d="M1598 4322 c-71 -2 -89 -6 -97 -20 -4 -9 -50 -156 -101 -327 -141
-473 -161 -534 -172 -510 -5 11 -57 207 -117 435 l-108 415 -127 3 c-118 2
-126 1 -126 -16 0 -21 75 -289 207 -737 47 -159 96 -330 110 -380 37 -134 26
-125 152 -125 75 0 112 4 118 13 8 10 64 184 209 647 12 41 31 102 40 135 20
71 12 85 89 -160 155 -494 197 -620 208 -627 21 -13 225 -10 234 5 10 16 241
816 329 1140 13 49 22 93 18 98 -7 12 -241 12 -249 -1 -3 -5 -53 -199 -111
-431 -57 -231 -107 -426 -110 -431 -6 -10 -102 283 -226 690 -32 104 -59 176
-68 180 -8 4 -54 6 -102 4z"/>
<path d="M6022 3693 l3 -628 110 0 110 0 3 252 2 253 248 2 247 3 0 105 0 105
-247 3 -248 2 0 160 0 160 283 2 282 3 3 103 3 102 -401 0 -400 0 2 -627z"/>
<path d="M4520 4219 c-25 -4 -60 -11 -77 -14 l-33 -6 0 -109 0 -110 -80 0 -81
0 3 -92 3 -93 78 -3 77 -3 0 -244 c0 -142 5 -266 11 -297 22 -102 68 -162 146
-190 48 -17 206 -16 256 1 57 19 67 35 67 101 0 76 -14 115 -38 105 -32 -14
-132 -18 -161 -6 -50 21 -55 45 -59 299 l-4 232 125 0 126 0 3 85 c2 47 2 90
0 95 -2 6 -56 10 -128 10 l-123 0 -3 123 -3 122 -30 2 c-16 1 -50 -3 -75 -8z"/>
<path d="M7936 3999 c-265 -29 -435 -309 -372 -610 47 -220 215 -349 455 -349
124 0 251 56 327 144 l36 41 -58 53 c-31 28 -61 52 -67 52 -5 0 -23 -11 -39
-25 -115 -97 -284 -99 -378 -5 -33 33 -70 110 -70 147 0 10 64 13 318 15 l317
3 3 45 c8 110 -31 260 -89 341 -36 51 -115 106 -181 127 -82 26 -118 30 -202
21z m155 -202 c47 -25 92 -88 104 -144 l7 -33 -216 0 -216 0 6 28 c8 35 47
102 70 123 63 55 169 66 245 26z"/>
<path d="M8916 3998 c-172 -21 -314 -150 -362 -331 -18 -67 -18 -227 0 -293
53 -202 228 -334 441 -334 137 0 254 47 332 135 l45 50 -58 52 c-33 29 -62 53
-66 53 -4 0 -33 -18 -64 -40 -64 -45 -108 -60 -174 -60 -126 0 -225 79 -254
202 l-6 28 322 2 323 3 3 63 c8 169 -68 338 -186 413 -82 52 -180 71 -296 57z
m145 -192 c56 -24 106 -88 123 -158 l6 -28 -215 0 c-165 0 -215 3 -215 13 0 6
11 35 24 62 40 86 99 125 187 125 31 0 72 -6 90 -14z"/>
<path d="M2762 3990 c-95 -20 -200 -96 -242 -176 -14 -26 -13 -28 29 -64 82
-70 85 -71 139 -14 51 54 99 74 173 74 122 0 199 -62 199 -160 l0 -30 -72 0
c-40 -1 -120 -5 -178 -10 -92 -8 -115 -14 -180 -47 -62 -32 -81 -48 -114 -95
-34 -49 -39 -66 -44 -127 -6 -87 14 -146 70 -207 62 -67 123 -89 248 -89 94 0
111 3 167 29 34 15 70 37 79 47 24 27 31 24 41 -18 l9 -38 87 -3 c83 -3 88 -2
95 20 5 13 7 160 5 327 -3 338 -8 377 -66 453 -37 49 -111 102 -165 119 -48
15 -225 20 -280 9z m298 -575 c0 -61 -20 -105 -64 -142 -116 -95 -301 -57
-301 62 0 68 33 94 150 119 11 2 64 4 118 5 l97 1 0 -45z"/>
<path d="M3662 3981 c-120 -42 -192 -138 -192 -260 0 -139 75 -212 279 -271
182 -52 228 -84 205 -147 -34 -95 -218 -97 -353 -5 l-65 45 -36 -42 c-20 -23
-44 -55 -53 -71 -18 -29 -18 -29 19 -70 127 -141 445 -160 606 -37 82 63 116
181 84 290 -31 107 -98 155 -286 207 -131 37 -165 52 -180 81 -32 58 24 119
109 119 67 0 118 -17 182 -60 l56 -39 30 32 c42 45 83 102 83 115 0 21 -114
92 -178 112 -85 27 -235 27 -310 1z"/>
<path d="M5268 3981 c-75 -24 -116 -51 -172 -111 -109 -117 -153 -309 -111
-488 33 -140 104 -231 230 -293 74 -37 94 -42 172 -46 106 -7 181 7 264 49 66
33 149 105 149 129 0 14 -104 109 -120 109 -5 0 -21 -11 -37 -24 -76 -63 -191
-91 -281 -67 -75 21 -148 103 -167 189 l-7 32 316 0 316 0 0 93 c0 200 -76
340 -225 413 -53 25 -72 29 -165 31 -81 2 -118 -1 -162 -16z m225 -175 c55
-22 103 -86 121 -158 l6 -28 -215 0 c-165 0 -215 3 -215 13 0 23 47 112 71
134 55 50 163 68 232 39z"/>
<path d="M7315 3982 c-33 -11 -66 -32 -97 -64 l-47 -48 -3 52 -3 53 -108 3
-107 3 2 -458 3 -458 110 0 110 0 5 280 c3 154 9 289 14 300 37 81 94 115 194
115 50 0 73 4 82 15 8 10 13 52 14 118 l1 102 -60 2 c-35 1 -81 -5 -110 -15z"/>
<path d="M4060 2096 c0 -560 2 -624 16 -630 23 -9 157 -7 172 2 10 7 12 139
10 628 l-3 619 -97 3 -98 3 0 -625z"/>
<path d="M7090 2484 l0 -236 -35 31 c-20 17 -59 43 -88 58 -45 23 -64 27 -147
27 -86 1 -101 -2 -160 -30 -147 -70 -234 -207 -247 -390 -15 -207 70 -380 223
-455 50 -25 80 -32 147 -36 108 -7 180 14 254 74 l53 43 0 -36 c0 -66 11 -74
98 -74 42 0 83 4 90 8 10 7 12 139 10 628 l-3 619 -97 3 -98 3 0 -237z m-135
-323 c116 -54 176 -217 129 -353 -19 -58 -74 -123 -127 -149 -32 -17 -54 -20
-113 -17 -96 5 -146 37 -189 123 -26 53 -30 70 -30 145 0 65 5 96 21 130 24
53 76 107 119 126 45 20 143 17 190 -5z"/>
<path d="M3268 2676 c-275 -81 -454 -348 -435 -651 10 -163 63 -289 166 -392
112 -114 249 -173 417 -180 116 -6 192 10 291 58 68 33 157 109 186 157 l17
30 -51 45 c-89 78 -91 78 -149 18 -137 -143 -356 -147 -521 -10 -90 75 -134
197 -127 354 4 87 9 111 36 168 39 84 109 159 181 194 50 25 67 28 161 28 94
0 111 -3 161 -28 31 -15 77 -49 102 -77 l47 -51 52 30 c28 16 63 39 77 49 l26
20 -23 45 c-47 90 -165 175 -282 201 -101 23 -238 20 -332 -8z"/>
<path d="M4771 2359 c-75 -15 -166 -64 -220 -119 -95 -97 -137 -219 -128 -370
6 -113 41 -199 112 -277 88 -97 194 -143 336 -143 233 0 409 154 442 386 48
329 -219 587 -542 523z m208 -203 c86 -42 131 -128 131 -250 -1 -125 -42 -200
-134 -246 -74 -37 -131 -39 -201 -6 -100 47 -145 126 -146 256 -1 71 3 90 28
138 63 125 195 170 322 108z"/>
<path d="M5476 2335 c-10 -27 -7 -535 4 -605 6 -36 22 -89 36 -117 82 -170
326 -217 483 -93 l51 40 0 -39 c0 -53 19 -63 118 -59 l77 3 0 440 0 440 -95 0
-95 0 -5 -280 c-3 -178 -9 -289 -17 -305 -49 -108 -217 -145 -302 -67 -43 40
-46 60 -51 362 l-5 290 -96 3 c-81 2 -98 0 -103 -13z"/>
</g>
</svg>
