<?xml version="1.0" encoding="UTF-8"?>
<!DOCTYPE svg PUBLIC "-//W3C//DTD SVG 1.1//EN" "http://www.w3.org/Graphics/SVG/1.1/DTD/svg11.dtd">
<!-- Creator: CorelDRAW -->
<svg xmlns="http://www.w3.org/2000/svg" xml:space="preserve" width="2048px" height="2048px" style="shape-rendering:geometricPrecision; text-rendering:geometricPrecision; image-rendering:optimizeQuality; fill-rule:evenodd; clip-rule:evenodd"
viewBox="0 0 2048 2048"
 xmlns:xlink="http://www.w3.org/1999/xlink">
 <defs>
  <style type="text/css">
   <![CDATA[
    .fil0 {fill:none}
    .fil2 {fill:#212121}
    .fil1 {fill:#212121;fill-rule:nonzero}
   ]]>
  </style>
 </defs>
 <g id="Layer_x0020_1">
  <metadata id="CorelCorpID_0Corel-Layer"/>
  <g id="_393573312">
   <rect id="_393566664" class="fil0" width="2048" height="2048"/>
   <rect id="_393573912" class="fil0" x="255.999" y="255.999" width="1536" height="1536"/>
  </g>
  <path class="fil1" d="M319.999 415.999l1312 0c26.4343,0 50.4414,10.7917 67.8249,28.1752 17.3835,17.3835 28.1752,41.3906 28.1752,67.8249l0 384 0 32.0008 -32.0008 0 -296.002 0c-5.81693,0 -11.3398,2.98819 -15.5492,7.79882 -5.21221,5.9563 -8.44843,14.5051 -8.44843,24.1996l0 128.002c0,9.6945 3.23622,18.2433 8.44843,24.1996 4.20945,4.81063 9.73347,7.79882 15.5492,7.79882l296.002 0 32.0008 0 0 32.0008 0 384.003c0,26.4343 -10.7917,50.4414 -28.1752,67.8249 -17.3835,17.3835 -41.3906,28.1752 -67.8249,28.1752l-1312 0c-26.4343,0 -50.4414,-10.7917 -67.8249,-28.1752 -17.3835,-17.3835 -28.1752,-41.3906 -28.1752,-67.8249l0 -1024c0,-26.4343 10.7917,-50.4414 28.1752,-67.8249 17.3835,-17.3835 41.3906,-28.1752 67.8249,-28.1752zm1312 64.0016l-1312 0c-8.76615,0 -16.761,3.61063 -22.5744,9.42402 -5.81339,5.81339 -9.42402,13.8083 -9.42402,22.5744l0 1024c0,8.76615 3.61063,16.761 9.42402,22.5744 5.81339,5.81339 13.8083,9.42402 22.5744,9.42402l1312 0c8.76615,0 16.761,-3.61063 22.5744,-9.42402 5.81339,-5.81339 9.42402,-13.8083 9.42402,-22.5744l0 -352.002 -264.001 0c-24.9815,0 -47.4603,-11.4142 -63.5493,-29.8004 -15.0851,-17.2406 -24.45,-40.6961 -24.45,-66.1997l0 -128.002c0,-25.5036 9.36497,-48.9591 24.45,-66.1997 16.0878,-18.3874 38.5666,-29.8004 63.5493,-29.8004l264.001 0 0 -351.999c0,-8.76615 -3.61063,-16.761 -9.42402,-22.5744 -5.81339,-5.81339 -13.8083,-9.42402 -22.5744,-9.42402z"/>
  <path class="fil1" d="M1400 863.998l336 0c24.9827,0 47.4626,11.4142 63.5493,29.8004 15.0862,17.2406 24.4512,40.6961 24.4512,66.1997l0 128.002c0,25.5036 -9.36497,48.9591 -24.4512,66.1997 -16.0866,18.3862 -38.5689,29.8004 -63.5493,29.8004l-336 0c-24.9827,0 -47.4615,-11.4142 -63.5504,-29.8004 -15.0851,-17.2406 -24.45,-40.6961 -24.45,-66.1997l0 -128.002c0,-25.5047 9.36497,-48.9591 24.45,-66.1997 16.089,-18.3862 38.5677,-29.8004 63.5504,-29.8004zm336 64.0016l-336 0c-5.81693,0 -11.341,2.98819 -15.5504,7.79882 -5.21221,5.9563 -8.44843,14.5039 -8.44843,24.1996l0 128.002c0,9.6945 3.23622,18.2433 8.44843,24.1996 4.20945,4.81063 9.73347,7.79882 15.5504,7.79882l336 0c5.81575,0 11.3398,-2.98819 15.5492,-7.79882 5.21339,-5.95748 8.44961,-14.5051 8.44961,-24.1996l0 -128.002c0,-9.6945 -3.23622,-18.2421 -8.44961,-24.1996 -4.20945,-4.81063 -9.73347,-7.79882 -15.5492,-7.79882z"/>
  <circle class="fil2" cx="1504" cy="1024" r="64.0004"/>
 </g>
</svg>
